<mxfile host="app.diagrams.net" agent="Mozilla/5.0 (Windows NT 10.0; Win64; x64) AppleWebKit/537.36 (KHTML, like Gecko) Chrome/140.0.0.0 Safari/537.36" version="28.2.5">
  <diagram id="VbmSNMpitOyS2P8errUJ" name="global-architecture">
    <mxGraphModel dx="1703" dy="709" grid="1" gridSize="10" guides="0" tooltips="1" connect="0" arrows="0" fold="1" page="0" pageScale="1" pageWidth="1169" pageHeight="827" math="0" shadow="0">
      <root>
        <mxCell id="0" />
        <mxCell id="1" parent="0" />
        <mxCell id="xCOBlcEBNlZvq0qhSWPW-67" value="" style="rounded=0;whiteSpace=wrap;html=1;" parent="1" vertex="1">
          <mxGeometry x="175" y="57" width="1295" height="743" as="geometry" />
        </mxCell>
        <mxCell id="O6HLDK9tNG4gK17g9pfa-21" value="" style="rounded=0;whiteSpace=wrap;html=1;sketch=0;fillColor=none;dashed=1;strokeWidth=2;" parent="1" vertex="1">
          <mxGeometry x="263" y="91" width="1133" height="543" as="geometry" />
        </mxCell>
        <mxCell id="O6HLDK9tNG4gK17g9pfa-50" value="" style="endArrow=classic;html=1;rounded=0;fontSize=15;endSize=6;strokeWidth=3;strokeColor=#C73500;fillColor=#fa6800;edgeStyle=entityRelationEdgeStyle;flowAnimation=1;entryX=0;entryY=0.5;entryDx=0;entryDy=0;" parent="1" source="O6HLDK9tNG4gK17g9pfa-103" target="xCOBlcEBNlZvq0qhSWPW-1" edge="1">
          <mxGeometry width="50" height="50" relative="1" as="geometry">
            <mxPoint x="267" y="350" as="sourcePoint" />
            <mxPoint x="465.0000000000002" y="161.5" as="targetPoint" />
          </mxGeometry>
        </mxCell>
        <mxCell id="O6HLDK9tNG4gK17g9pfa-59" value="/customers" style="edgeLabel;html=1;align=center;verticalAlign=middle;resizable=0;points=[];fontSize=15;" parent="O6HLDK9tNG4gK17g9pfa-50" vertex="1" connectable="0">
          <mxGeometry x="-0.5046" y="1" relative="1" as="geometry">
            <mxPoint x="62" y="-38" as="offset" />
          </mxGeometry>
        </mxCell>
        <mxCell id="O6HLDK9tNG4gK17g9pfa-51" value="" style="endArrow=classic;html=1;rounded=0;fontSize=15;endSize=6;strokeWidth=3;strokeColor=#C73500;fillColor=#fa6800;edgeStyle=entityRelationEdgeStyle;entryX=0;entryY=0.75;entryDx=0;entryDy=0;flowAnimation=1;" parent="1" source="O6HLDK9tNG4gK17g9pfa-103" target="xCOBlcEBNlZvq0qhSWPW-20" edge="1">
          <mxGeometry width="50" height="50" relative="1" as="geometry">
            <mxPoint x="260.99999999999955" y="353" as="sourcePoint" />
            <mxPoint x="486" y="528.5" as="targetPoint" />
          </mxGeometry>
        </mxCell>
        <mxCell id="O6HLDK9tNG4gK17g9pfa-60" value="/orders" style="edgeLabel;html=1;align=center;verticalAlign=middle;resizable=0;points=[];fontSize=15;" parent="O6HLDK9tNG4gK17g9pfa-51" vertex="1" connectable="0">
          <mxGeometry x="0.2804" y="-3" relative="1" as="geometry">
            <mxPoint x="-88" y="-53" as="offset" />
          </mxGeometry>
        </mxCell>
        <mxCell id="8Op4M2FmP5w4KHeaY0xA-4" style="edgeStyle=orthogonalEdgeStyle;rounded=0;orthogonalLoop=1;jettySize=auto;html=1;strokeWidth=3;fillColor=#fa6800;strokeColor=#C73500;flowAnimation=1;entryX=0;entryY=0.5;entryDx=0;entryDy=0;" parent="1" source="O6HLDK9tNG4gK17g9pfa-103" target="xCOBlcEBNlZvq0qhSWPW-12" edge="1">
          <mxGeometry relative="1" as="geometry">
            <mxPoint x="403" y="351" as="targetPoint" />
          </mxGeometry>
        </mxCell>
        <mxCell id="8Op4M2FmP5w4KHeaY0xA-5" value="/products" style="edgeLabel;html=1;align=center;verticalAlign=middle;resizable=0;points=[];fontSize=15;" parent="8Op4M2FmP5w4KHeaY0xA-4" vertex="1" connectable="0">
          <mxGeometry x="0.2865" y="1" relative="1" as="geometry">
            <mxPoint x="-50" y="-1" as="offset" />
          </mxGeometry>
        </mxCell>
        <mxCell id="xCOBlcEBNlZvq0qhSWPW-14" value="" style="shape=image;verticalLabelPosition=bottom;labelBackgroundColor=default;verticalAlign=top;aspect=fixed;imageAspect=0;image=https://static-00.iconduck.com/assets.00/kafka-icon-2048x935-cvu4503l.png;imageBorder=none;perimeterSpacing=0;" parent="1" vertex="1">
          <mxGeometry x="1054" y="274" width="77.75" height="35.5" as="geometry" />
        </mxCell>
        <mxCell id="xCOBlcEBNlZvq0qhSWPW-15" value="Message Broker" style="shape=cylinder3;whiteSpace=wrap;html=1;boundedLbl=1;backgroundOutline=1;size=15;rotation=90;horizontal=0;verticalAlign=top;" parent="1" vertex="1">
          <mxGeometry x="1081" y="274.5" width="59" height="139" as="geometry" />
        </mxCell>
        <mxCell id="xCOBlcEBNlZvq0qhSWPW-25" style="edgeStyle=entityRelationEdgeStyle;rounded=0;orthogonalLoop=1;jettySize=auto;html=1;entryX=0.686;entryY=0.998;entryDx=0;entryDy=0;entryPerimeter=0;fillColor=#60a917;strokeColor=#2D7600;strokeWidth=3;flowAnimation=1;" parent="1" source="xCOBlcEBNlZvq0qhSWPW-19" target="xCOBlcEBNlZvq0qhSWPW-15" edge="1">
          <mxGeometry relative="1" as="geometry" />
        </mxCell>
        <mxCell id="xCOBlcEBNlZvq0qhSWPW-27" style="rounded=0;orthogonalLoop=1;jettySize=auto;html=1;exitX=0.331;exitY=-0.003;exitDx=0;exitDy=0;exitPerimeter=0;strokeWidth=3;fillColor=#1ba1e2;strokeColor=#006EAF;flowAnimation=1;" parent="1" source="xCOBlcEBNlZvq0qhSWPW-19" edge="1">
          <mxGeometry relative="1" as="geometry">
            <mxPoint x="577" y="376" as="targetPoint" />
          </mxGeometry>
        </mxCell>
        <mxCell id="xCOBlcEBNlZvq0qhSWPW-28" style="edgeStyle=entityRelationEdgeStyle;rounded=0;orthogonalLoop=1;jettySize=auto;html=1;entryX=0;entryY=0.5;entryDx=0;entryDy=0;exitX=1;exitY=0.25;exitDx=0;exitDy=0;fillColor=#1ba1e2;strokeColor=#006EAF;strokeWidth=3;flowAnimation=1;" parent="1" source="xCOBlcEBNlZvq0qhSWPW-19" target="xCOBlcEBNlZvq0qhSWPW-9" edge="1">
          <mxGeometry relative="1" as="geometry" />
        </mxCell>
        <mxCell id="xCOBlcEBNlZvq0qhSWPW-30" style="rounded=0;orthogonalLoop=1;jettySize=auto;html=1;entryX=0.5;entryY=1;entryDx=0;entryDy=0;entryPerimeter=0;fillColor=#60a917;strokeColor=#2D7600;strokeWidth=3;flowAnimation=1;" parent="1" source="xCOBlcEBNlZvq0qhSWPW-9" target="xCOBlcEBNlZvq0qhSWPW-15" edge="1">
          <mxGeometry relative="1" as="geometry" />
        </mxCell>
        <mxCell id="xCOBlcEBNlZvq0qhSWPW-31" style="rounded=0;orthogonalLoop=1;jettySize=auto;html=1;exitX=0.75;exitY=0;exitDx=0;exitDy=0;entryX=0.75;entryY=1;entryDx=0;entryDy=0;strokeWidth=3;fillColor=#1ba1e2;strokeColor=#006EAF;flowAnimation=1;" parent="1" source="xCOBlcEBNlZvq0qhSWPW-19" target="xCOBlcEBNlZvq0qhSWPW-1" edge="1">
          <mxGeometry relative="1" as="geometry" />
        </mxCell>
        <mxCell id="xCOBlcEBNlZvq0qhSWPW-35" style="edgeStyle=orthogonalEdgeStyle;rounded=0;orthogonalLoop=1;jettySize=auto;html=1;entryX=0.5;entryY=0;entryDx=0;entryDy=0;entryPerimeter=0;fillColor=#60a917;strokeColor=#2D7600;strokeWidth=3;flowAnimation=1;" parent="1" source="xCOBlcEBNlZvq0qhSWPW-33" target="xCOBlcEBNlZvq0qhSWPW-15" edge="1">
          <mxGeometry relative="1" as="geometry" />
        </mxCell>
        <mxCell id="xCOBlcEBNlZvq0qhSWPW-46" value="" style="group" parent="1" vertex="1" connectable="0">
          <mxGeometry x="785.94" y="213" width="50.120000000000005" height="57.64852490606316" as="geometry" />
        </mxCell>
        <mxCell id="xCOBlcEBNlZvq0qhSWPW-47" value="" style="shape=image;verticalLabelPosition=bottom;labelBackgroundColor=default;verticalAlign=top;aspect=fixed;imageAspect=0;image=https://upload.wikimedia.org/wikipedia/commons/thumb/b/ba/Database-postgres.svg/1448px-Database-postgres.svg.png;container=0;" parent="xCOBlcEBNlZvq0qhSWPW-46" vertex="1">
          <mxGeometry x="13.99735211811253" width="36.12264788188748" height="51.04120428447361" as="geometry" />
        </mxCell>
        <mxCell id="xCOBlcEBNlZvq0qhSWPW-48" value="" style="sketch=0;aspect=fixed;html=1;points=[];align=center;image;fontSize=12;image=img/lib/mscae/Docker.svg;fillColor=none;container=0;" parent="xCOBlcEBNlZvq0qhSWPW-46" vertex="1">
          <mxGeometry y="36.67969348659003" width="25.571745633503813" height="20.968831419473126" as="geometry" />
        </mxCell>
        <mxCell id="xCOBlcEBNlZvq0qhSWPW-49" value="" style="group" parent="1" vertex="1" connectable="0">
          <mxGeometry x="517.94" y="226" width="50.120000000000005" height="57.64852490606316" as="geometry" />
        </mxCell>
        <mxCell id="xCOBlcEBNlZvq0qhSWPW-50" value="" style="shape=image;verticalLabelPosition=bottom;labelBackgroundColor=default;verticalAlign=top;aspect=fixed;imageAspect=0;image=https://upload.wikimedia.org/wikipedia/commons/thumb/b/ba/Database-postgres.svg/1448px-Database-postgres.svg.png;container=0;" parent="xCOBlcEBNlZvq0qhSWPW-49" vertex="1">
          <mxGeometry x="15.99735211811253" width="36.12264788188748" height="51.04120428447361" as="geometry" />
        </mxCell>
        <mxCell id="xCOBlcEBNlZvq0qhSWPW-51" value="" style="sketch=0;aspect=fixed;html=1;points=[];align=center;image;fontSize=12;image=img/lib/mscae/Docker.svg;fillColor=none;container=0;" parent="xCOBlcEBNlZvq0qhSWPW-49" vertex="1">
          <mxGeometry y="36.67969348659003" width="25.571745633503813" height="20.968831419473126" as="geometry" />
        </mxCell>
        <mxCell id="xCOBlcEBNlZvq0qhSWPW-54" style="edgeStyle=orthogonalEdgeStyle;rounded=0;orthogonalLoop=1;jettySize=auto;html=1;shape=link;flowAnimation=1;" parent="1" source="xCOBlcEBNlZvq0qhSWPW-9" target="xCOBlcEBNlZvq0qhSWPW-47" edge="1">
          <mxGeometry relative="1" as="geometry" />
        </mxCell>
        <mxCell id="xCOBlcEBNlZvq0qhSWPW-55" value="" style="group" parent="1" vertex="1" connectable="0">
          <mxGeometry x="476" y="559" width="50.120000000000005" height="57.64852490606316" as="geometry" />
        </mxCell>
        <mxCell id="xCOBlcEBNlZvq0qhSWPW-56" value="" style="shape=image;verticalLabelPosition=bottom;labelBackgroundColor=default;verticalAlign=top;aspect=fixed;imageAspect=0;image=https://upload.wikimedia.org/wikipedia/commons/thumb/b/ba/Database-postgres.svg/1448px-Database-postgres.svg.png;container=0;" parent="xCOBlcEBNlZvq0qhSWPW-55" vertex="1">
          <mxGeometry x="13.99735211811253" width="36.12264788188748" height="51.04120428447361" as="geometry" />
        </mxCell>
        <mxCell id="xCOBlcEBNlZvq0qhSWPW-57" value="" style="sketch=0;aspect=fixed;html=1;points=[];align=center;image;fontSize=12;image=img/lib/mscae/Docker.svg;fillColor=none;container=0;" parent="xCOBlcEBNlZvq0qhSWPW-55" vertex="1">
          <mxGeometry y="36.67969348659003" width="25.571745633503813" height="20.968831419473126" as="geometry" />
        </mxCell>
        <mxCell id="xCOBlcEBNlZvq0qhSWPW-58" style="edgeStyle=orthogonalEdgeStyle;rounded=0;orthogonalLoop=1;jettySize=auto;html=1;entryX=1;entryY=0.5;entryDx=0;entryDy=0;exitX=0.5;exitY=1;exitDx=0;exitDy=0;shape=link;flowAnimation=1;" parent="1" source="xCOBlcEBNlZvq0qhSWPW-19" target="xCOBlcEBNlZvq0qhSWPW-56" edge="1">
          <mxGeometry relative="1" as="geometry" />
        </mxCell>
        <mxCell id="xCOBlcEBNlZvq0qhSWPW-59" style="edgeStyle=orthogonalEdgeStyle;rounded=0;orthogonalLoop=1;jettySize=auto;html=1;entryX=0.25;entryY=1;entryDx=0;entryDy=0;shape=link;flowAnimation=1;" parent="1" source="xCOBlcEBNlZvq0qhSWPW-12" target="xCOBlcEBNlZvq0qhSWPW-50" edge="1">
          <mxGeometry relative="1" as="geometry" />
        </mxCell>
        <mxCell id="O6HLDK9tNG4gK17g9pfa-103" value="&lt;b&gt;Gateway&lt;/b&gt;" style="sketch=0;outlineConnect=0;dashed=0;verticalLabelPosition=bottom;verticalAlign=top;align=center;html=1;fontSize=12;fontStyle=0;aspect=fixed;pointerEvents=1;shape=mxgraph.aws4.gateway_load_balancer;labelBackgroundColor=none;labelBorderColor=none;fillColor=#1ba1e2;strokeColor=default;" parent="1" vertex="1">
          <mxGeometry x="90" y="314.5" width="73" height="73" as="geometry" />
        </mxCell>
        <mxCell id="xCOBlcEBNlZvq0qhSWPW-68" value="Public network" style="text;html=1;align=center;verticalAlign=middle;resizable=0;points=[];autosize=1;strokeColor=none;fillColor=none;fontStyle=1" parent="1" vertex="1">
          <mxGeometry x="60" y="120" width="103" height="26" as="geometry" />
        </mxCell>
        <mxCell id="xCOBlcEBNlZvq0qhSWPW-69" value="Private network" style="text;html=1;align=center;verticalAlign=middle;resizable=0;points=[];autosize=1;strokeColor=none;fillColor=none;fontStyle=1" parent="1" vertex="1">
          <mxGeometry x="175" y="57" width="107" height="26" as="geometry" />
        </mxCell>
        <mxCell id="xCOBlcEBNlZvq0qhSWPW-70" style="edgeStyle=orthogonalEdgeStyle;rounded=0;orthogonalLoop=1;jettySize=auto;html=1;entryX=0.75;entryY=1;entryDx=0;entryDy=0;flowAnimation=1;startArrow=none;startFill=0;endArrow=block;endFill=1;" parent="1" source="xCOBlcEBNlZvq0qhSWPW-37" target="O6HLDK9tNG4gK17g9pfa-21" edge="1">
          <mxGeometry relative="1" as="geometry" />
        </mxCell>
        <mxCell id="xCOBlcEBNlZvq0qhSWPW-71" style="edgeStyle=orthogonalEdgeStyle;rounded=0;orthogonalLoop=1;jettySize=auto;html=1;entryX=0.25;entryY=1;entryDx=0;entryDy=0;flowAnimation=1;startArrow=block;startFill=1;endArrow=none;endFill=0;" parent="1" source="xCOBlcEBNlZvq0qhSWPW-40" target="O6HLDK9tNG4gK17g9pfa-21" edge="1">
          <mxGeometry relative="1" as="geometry" />
        </mxCell>
        <mxCell id="rKu08YaNow4kpiejSnou-1" value="" style="shape=message;html=1;html=1;outlineConnect=0;labelPosition=center;verticalLabelPosition=bottom;align=center;verticalAlign=top;container=0;" parent="1" vertex="1">
          <mxGeometry x="1063" y="344" width="23" height="13.5" as="geometry" />
        </mxCell>
        <mxCell id="rKu08YaNow4kpiejSnou-2" value="" style="shape=message;html=1;html=1;outlineConnect=0;labelPosition=center;verticalLabelPosition=bottom;align=center;verticalAlign=top;container=0;" parent="1" vertex="1">
          <mxGeometry x="1089" y="344" width="23" height="13.5" as="geometry" />
        </mxCell>
        <mxCell id="rKu08YaNow4kpiejSnou-3" value="" style="shape=message;html=1;html=1;outlineConnect=0;labelPosition=center;verticalLabelPosition=bottom;align=center;verticalAlign=top;container=0;" parent="1" vertex="1">
          <mxGeometry x="1116" y="344" width="23" height="13.5" as="geometry" />
        </mxCell>
        <mxCell id="rKu08YaNow4kpiejSnou-4" style="edgeStyle=orthogonalEdgeStyle;rounded=0;orthogonalLoop=1;jettySize=auto;html=1;flowAnimation=1;" parent="1" source="xCOBlcEBNlZvq0qhSWPW-37" target="xCOBlcEBNlZvq0qhSWPW-40" edge="1">
          <mxGeometry relative="1" as="geometry" />
        </mxCell>
        <mxCell id="rKu08YaNow4kpiejSnou-6" style="edgeStyle=orthogonalEdgeStyle;rounded=0;orthogonalLoop=1;jettySize=auto;html=1;flowAnimation=1;" parent="1" target="O6HLDK9tNG4gK17g9pfa-103" edge="1">
          <mxGeometry relative="1" as="geometry">
            <mxPoint x="41.180000000000064" y="351.1" as="sourcePoint" />
          </mxGeometry>
        </mxCell>
        <mxCell id="xCOBlcEBNlZvq0qhSWPW-1" value="Customer" style="rounded=1;whiteSpace=wrap;html=1;" parent="1" vertex="1">
          <mxGeometry x="539" y="140" width="120" height="39" as="geometry" />
        </mxCell>
        <mxCell id="xCOBlcEBNlZvq0qhSWPW-2" value="" style="shape=image;verticalLabelPosition=bottom;labelBackgroundColor=default;verticalAlign=top;aspect=fixed;imageAspect=0;image=https://images.ctfassets.net/gt6dp23g0g38/5DqlQtFKecFlkqQ8YGDT2p/aa945b648f44dd872e9a1b89f7d203ef/springboot.png;" parent="1" vertex="1">
          <mxGeometry x="543" y="142.6" width="19.538999999999998" height="17.55" as="geometry" />
        </mxCell>
        <mxCell id="xCOBlcEBNlZvq0qhSWPW-12" value="Product" style="rounded=1;whiteSpace=wrap;html=1;" parent="1" vertex="1">
          <mxGeometry x="483" y="330.5" width="120" height="41" as="geometry" />
        </mxCell>
        <mxCell id="xCOBlcEBNlZvq0qhSWPW-13" value="" style="shape=image;verticalLabelPosition=bottom;labelBackgroundColor=default;verticalAlign=top;aspect=fixed;imageAspect=0;image=https://images.ctfassets.net/gt6dp23g0g38/5DqlQtFKecFlkqQ8YGDT2p/aa945b648f44dd872e9a1b89f7d203ef/springboot.png;" parent="1" vertex="1">
          <mxGeometry x="487" y="333.23333333333335" width="20.541" height="18.45" as="geometry" />
        </mxCell>
        <mxCell id="xCOBlcEBNlZvq0qhSWPW-9" value="Payment" style="rounded=1;whiteSpace=wrap;html=1;" parent="1" vertex="1">
          <mxGeometry x="758" y="324" width="120" height="40" as="geometry" />
        </mxCell>
        <mxCell id="xCOBlcEBNlZvq0qhSWPW-10" value="" style="shape=image;verticalLabelPosition=bottom;labelBackgroundColor=default;verticalAlign=top;aspect=fixed;imageAspect=0;image=https://images.ctfassets.net/gt6dp23g0g38/5DqlQtFKecFlkqQ8YGDT2p/aa945b648f44dd872e9a1b89f7d203ef/springboot.png;" parent="1" vertex="1">
          <mxGeometry x="762" y="326.6666666666667" width="20.04" height="18.000000000000004" as="geometry" />
        </mxCell>
        <mxCell id="xCOBlcEBNlZvq0qhSWPW-19" value="Order" style="rounded=1;whiteSpace=wrap;html=1;" parent="1" vertex="1">
          <mxGeometry x="537" y="508" width="120" height="41.5" as="geometry" />
        </mxCell>
        <mxCell id="xCOBlcEBNlZvq0qhSWPW-20" value="" style="shape=image;verticalLabelPosition=bottom;labelBackgroundColor=default;verticalAlign=top;aspect=fixed;imageAspect=0;image=https://images.ctfassets.net/gt6dp23g0g38/5DqlQtFKecFlkqQ8YGDT2p/aa945b648f44dd872e9a1b89f7d203ef/springboot.png;" parent="1" vertex="1">
          <mxGeometry x="541" y="510.76666666666665" width="20.7915" height="18.675" as="geometry" />
        </mxCell>
        <mxCell id="xCOBlcEBNlZvq0qhSWPW-33" value="Notification" style="rounded=1;whiteSpace=wrap;html=1;" parent="1" vertex="1">
          <mxGeometry x="1254" y="320.5" width="120" height="47" as="geometry" />
        </mxCell>
        <mxCell id="xCOBlcEBNlZvq0qhSWPW-34" value="" style="shape=image;verticalLabelPosition=bottom;labelBackgroundColor=default;verticalAlign=top;aspect=fixed;imageAspect=0;image=https://images.ctfassets.net/gt6dp23g0g38/5DqlQtFKecFlkqQ8YGDT2p/aa945b648f44dd872e9a1b89f7d203ef/springboot.png;" parent="1" vertex="1">
          <mxGeometry x="1258" y="323.6333333333333" width="23.546999999999997" height="21.15" as="geometry" />
        </mxCell>
        <mxCell id="xCOBlcEBNlZvq0qhSWPW-40" value="Eureka server" style="rounded=1;whiteSpace=wrap;html=1;" parent="1" vertex="1">
          <mxGeometry x="487" y="703.13" width="120" height="47" as="geometry" />
        </mxCell>
        <mxCell id="xCOBlcEBNlZvq0qhSWPW-41" value="" style="shape=image;verticalLabelPosition=bottom;labelBackgroundColor=default;verticalAlign=top;aspect=fixed;imageAspect=0;image=https://images.ctfassets.net/gt6dp23g0g38/5DqlQtFKecFlkqQ8YGDT2p/aa945b648f44dd872e9a1b89f7d203ef/springboot.png;" parent="1" vertex="1">
          <mxGeometry x="491" y="706.2633333333333" width="23.546999999999997" height="21.15" as="geometry" />
        </mxCell>
        <mxCell id="xCOBlcEBNlZvq0qhSWPW-37" value="Config server" style="rounded=1;whiteSpace=wrap;html=1;" parent="1" vertex="1">
          <mxGeometry x="1054" y="703.13" width="120" height="47" as="geometry" />
        </mxCell>
        <mxCell id="xCOBlcEBNlZvq0qhSWPW-38" value="" style="shape=image;verticalLabelPosition=bottom;labelBackgroundColor=default;verticalAlign=top;aspect=fixed;imageAspect=0;image=https://images.ctfassets.net/gt6dp23g0g38/5DqlQtFKecFlkqQ8YGDT2p/aa945b648f44dd872e9a1b89f7d203ef/springboot.png;" parent="1" vertex="1">
          <mxGeometry x="1058" y="706.2633333333333" width="23.546999999999997" height="21.15" as="geometry" />
        </mxCell>
        <mxCell id="wk4jl4iI8-9zAJfEVQE0-1" value="" style="group" vertex="1" connectable="0" parent="1">
          <mxGeometry x="710" y="130" width="50.120000000000005" height="57.64852490606316" as="geometry" />
        </mxCell>
        <mxCell id="wk4jl4iI8-9zAJfEVQE0-2" value="" style="shape=image;verticalLabelPosition=bottom;labelBackgroundColor=default;verticalAlign=top;aspect=fixed;imageAspect=0;image=https://upload.wikimedia.org/wikipedia/commons/thumb/b/ba/Database-postgres.svg/1448px-Database-postgres.svg.png;container=0;" vertex="1" parent="wk4jl4iI8-9zAJfEVQE0-1">
          <mxGeometry x="19.99735211811253" width="36.12264788188748" height="51.04120428447361" as="geometry" />
        </mxCell>
        <mxCell id="wk4jl4iI8-9zAJfEVQE0-3" value="" style="sketch=0;aspect=fixed;html=1;points=[];align=center;image;fontSize=12;image=img/lib/mscae/Docker.svg;fillColor=none;container=0;" vertex="1" parent="wk4jl4iI8-9zAJfEVQE0-1">
          <mxGeometry y="36.67969348659003" width="25.571745633503813" height="20.968831419473126" as="geometry" />
        </mxCell>
        <mxCell id="wk4jl4iI8-9zAJfEVQE0-4" style="edgeStyle=orthogonalEdgeStyle;rounded=0;orthogonalLoop=1;jettySize=auto;html=1;shape=link;flowAnimation=1;exitX=0.997;exitY=0.611;exitDx=0;exitDy=0;exitPerimeter=0;" edge="1" parent="1" source="xCOBlcEBNlZvq0qhSWPW-1" target="wk4jl4iI8-9zAJfEVQE0-2">
          <mxGeometry relative="1" as="geometry">
            <mxPoint x="710" y="270" as="sourcePoint" />
            <mxPoint x="710" y="210" as="targetPoint" />
          </mxGeometry>
        </mxCell>
        <mxCell id="wk4jl4iI8-9zAJfEVQE0-5" value="Frontend" style="rounded=0;whiteSpace=wrap;html=1;" vertex="1" parent="1">
          <mxGeometry x="-40" y="330" width="80" height="40" as="geometry" />
        </mxCell>
      </root>
    </mxGraphModel>
  </diagram>
</mxfile>
